name D:\school\WTK\thesis\model\3dpredictsim\Results\windlass\Pog_s1_tmt_bCst_d00_k1000_WL40_ig24.mot
datacolumns 128
datarows 4
range 0.00000000 0.03279665
endheader
time	pelvis_tilt	pelvis_list	pelvis_rotation	pelvis_tx	pelvis_ty	pelvis_tz	hip_flexion_l	hip_adduction_l	hip_rotation_l	hip_flexion_r	hip_adduction_r	hip_rotation_r	knee_angle_l	knee_angle_r	ankle_angle_l	ankle_angle_r	subtalar_angle_l	subtalar_angle_r	tmt_angle_l	tmt_angle_r	mtp_angle_l	mtp_angle_r	lumbar_extension	lumbar_bending	lumbar_rotation	arm_flex_l	arm_add_l	arm_rot_l	arm_flex_r	arm_add_r	arm_rot_r	elbow_flex_l	elbow_flex_r	pro_sup_l	pro_sup_r	glut_med1_l/activation	glut_med2_l/activation	glut_med3_l/activation	glut_min1_l/activation	glut_min2_l/activation	glut_min3_l/activation	semimem_l/activation	semiten_l/activation	bifemlh_l/activation	bifemsh_l/activation	sar_l/activation	add_long_l/activation	add_brev_l/activation	add_mag1_l/activation	add_mag2_l/activation	add_mag3_l/activation	tfl_l/activation	pect_l/activation	grac_l/activation	glut_max1_l/activation	glut_max2_l/activation	glut_max3_l/activation	iliacus_l/activation	psoas_l/activation	quad_fem_l/activation	gem_l/activation	peri_l/activation	rect_fem_l/activation	vas_med_l/activation	vas_int_l/activation	vas_lat_l/activation	med_gas_l/activation	lat_gas_l/activation	soleus_l/activation	tib_post_l/activation	flex_dig_l/activation	flex_hal_l/activation	tib_ant_l/activation	per_brev_l/activation	per_long_l/activation	per_tert_l/activation	ext_dig_l/activation	ext_hal_l/activation	ercspn_l/activation	intobl_l/activation	extobl_l/activation	glut_med1_r/activation	glut_med2_r/activation	glut_med3_r/activation	glut_min1_r/activation	glut_min2_r/activation	glut_min3_r/activation	semimem_r/activation	semiten_r/activation	bifemlh_r/activation	bifemsh_r/activation	sar_r/activation	add_long_r/activation	add_brev_r/activation	add_mag1_r/activation	add_mag2_r/activation	add_mag3_r/activation	tfl_r/activation	pect_r/activation	grac_r/activation	glut_max1_r/activation	glut_max2_r/activation	glut_max3_r/activation	iliacus_r/activation	psoas_r/activation	quad_fem_r/activation	gem_r/activation	peri_r/activation	rect_fem_r/activation	vas_med_r/activation	vas_int_r/activation	vas_lat_r/activation	med_gas_r/activation	lat_gas_r/activation	soleus_r/activation	tib_post_r/activation	flex_dig_r/activation	flex_hal_r/activation	tib_ant_r/activation	per_brev_r/activation	per_long_r/activation	per_tert_r/activation	ext_dig_r/activation	ext_hal_r/activation	ercspn_r/activation	intobl_r/activation	extobl_r/activation	
          0.00000000	         -2.92972996	         -1.65452419	          5.19694148	          0.00000000	          0.86141381	         -0.00212203	        -17.36005204	         -0.96530284	          6.48743037	         30.79329683	          2.52764026	         -1.60057148	         -7.53339293	        -13.35056284	          4.02989816	          8.14251849	          9.60983817	         -2.33425670	        -12.39835032	          0.09871926	         28.13322350	         -0.13131400	         -1.35868377	         -0.09354254	         -2.11358838	          6.77804388	        -13.45317836	         16.73302412	         -9.22728920	        -13.47551417	          7.84247555	         34.06485596	         15.44882076	         86.51662706	         86.51662706	          0.35005295	          0.09527315	          0.06560748	          0.31434506	          0.18066804	          0.09763237	          0.05000105	          0.05000021	          0.05000015	          0.05911180	          0.08848658	          0.07090861	          0.05000059	          0.05000049	          0.05000125	          0.05000066	          0.25652822	          0.05016066	          0.05000082	          0.05000233	          0.05000151	          0.05000112	          0.33629345	          0.55692135	          0.05000022	          0.05000059	          0.05000048	          0.22552889	          0.11489950	          0.05434631	          0.07430874	          0.27567503	          0.34912467	          0.23461629	          0.21576166	          0.14003627	          0.24835339	          0.05000002	          0.11242247	          0.17489711	          0.05000018	          0.05000004	          0.05000015	          0.05000002	          0.05000002	          0.05000003	          0.10579192	          0.05000019	          0.05911005	          0.05000013	          0.05000018	          0.05000072	          0.05911072	          0.05911061	          0.15007980	          0.05000051	          0.05000490	          0.08949292	          0.13803059	          0.19701804	          0.16082619	          0.10464089	          0.05000247	          0.05003796	          0.05912717	          0.05983650	          0.06988034	          0.10386874	          0.05000018	          0.05000018	          0.24631525	          0.05380471	          0.05000179	          0.05000019	          0.08443955	          0.09002437	          0.07380229	          0.05911006	          0.05240490	          0.05911015	          0.05000008	          0.05000113	          0.05000344	          0.50206290	          0.35968324	          0.21348159	          0.26883868	          0.53521705	          0.31095537	          0.06176633	          0.11049200	          0.11593566	
          0.01093222	         -2.92504212	         -1.67975563	          5.44469632	          0.01661632	          0.86071832	         -0.00193459	        -17.32886285	         -1.19683106	          6.26279385	         30.11501779	          2.81437181	         -1.39699067	         -9.20795941	        -13.19006947	          3.15058596	          7.60704285	         10.42244313	         -2.75709334	        -13.26478521	          0.09579889	         29.38422296	         -0.11651525	         -1.14544010	          0.08637630	         -2.18650689	          6.59073749	        -13.46392794	         16.98828505	        -10.31531056	        -13.45958116	          7.71918089	         35.10245665	         15.36098546	         86.51662706	         86.51662706	          0.29610223	          0.08058948	          0.05549598	          0.26589783	          0.15282318	          0.08258512	          0.05000376	          0.05000052	          0.05000051	          0.05000154	          0.07484911	          0.14368390	          0.12842640	          0.06148762	          0.05000741	          0.05000432	          0.21699166	          0.08264540	          0.05000246	          0.05000220	          0.05000156	          0.05000146	          0.28446329	          0.47108775	          0.05000030	          0.05000242	          0.05001168	          0.19076995	          0.09719296	          0.17214817	          0.16136569	          0.23318745	          0.29531689	          0.19845676	          0.18250825	          0.11845401	          0.21007683	          0.05000002	          0.09509578	          0.14794187	          0.05000017	          0.05000005	          0.05000014	          0.05000003	          0.06988030	          0.05000007	          0.08948714	          0.05318508	          0.05000017	          0.05911050	          0.05910982	          0.05000081	          0.05000049	          0.05000052	          0.12694930	          0.05000056	          0.05000145	          0.07571897	          0.11675766	          0.27362458	          0.19872254	          0.09457300	          0.05000023	          0.05000313	          0.05001501	          0.05061515	          0.05911041	          0.11750343	          0.05000214	          0.05001192	          0.48543141	          0.13645846	          0.11871620	          0.06988036	          0.19846846	          0.20215019	          0.17400257	          0.05000000	          0.05000001	          0.05000000	          0.05000016	          0.05911039	          0.05000541	          0.56612890	          0.33510394	          0.22387252	          0.44783710	          0.57446165	          0.29130865	          0.05224679	          0.09346276	          0.09806743	
          0.02186443	         -2.91607048	         -1.70792253	          5.66829451	          0.03349347	          0.85990274	         -0.00176204	        -17.24866052	         -1.42707587	          6.02371075	         29.32069583	          3.05004099	         -1.13958605	        -10.99174292	        -13.54391093	          2.14031539	          7.01357411	         11.19100292	         -3.19650654	        -13.92335019	          0.04600322	         30.21707137	         -0.15794846	         -0.91467235	          0.27783256	         -2.24845348	          6.32958680	        -13.47584628	         17.17868617	        -11.40980521	        -13.45042775	          7.63648595	         36.11009809	         15.29494766	         86.51662706	         86.51662706	          0.38736794	          0.06816889	          0.05000013	          0.22491770	          0.12926982	          0.06985698	          0.05000194	          0.05000050	          0.05000042	          0.05000018	          0.06331348	          0.15865686	          0.25044807	          0.05911025	          0.05091738	          0.08382292	          0.18354859	          0.07002839	          0.05000159	          0.05000572	          0.05000467	          0.05000604	          0.24062130	          0.45232394	          0.05000057	          0.05000068	          0.05000008	          0.16136812	          0.13649695	          0.14561683	          0.13649633	          0.19724813	          0.24980207	          0.16787020	          0.15437976	          0.10019781	          0.17769946	          0.05864308	          0.08043962	          0.17704232	          0.05000031	          0.11957638	          0.05000418	          0.05559905	          0.05911022	          0.05911022	          0.28155873	          0.05000009	          0.28089641	          0.05000040	          0.05000018	          0.25790540	          0.07635993	          0.05000045	          0.12073190	          0.05000008	          0.05000037	          0.07508108	          0.18928182	          0.23145345	          0.17542292	          0.12828791	          0.05000064	          0.05911251	          0.11726747	          0.05000018	          0.05000041	          0.11011758	          0.05487919	          0.05000071	          0.41061579	          0.11542731	          0.17695056	          0.05911027	          0.16788020	          0.17099450	          0.14718503	          0.05911037	          0.05911058	          0.05911023	          0.05911020	          0.05000035	          0.05000045	          0.47887599	          0.33378173	          0.18936894	          0.37881572	          0.58209374	          0.24641162	          0.05000001	          0.09766529	          0.08295309	
          0.03279665	         -2.90463203	         -1.74371506	          5.85987335	          0.05045013	          0.85896143	         -0.00158480	        -17.09127959	         -1.65514831	          5.78284575	         28.41785893	          3.25585108	         -0.87555333	        -12.93190344	        -13.93895935	          1.05495001	          6.57073921	         11.89462006	         -3.62640973	        -14.24771682	          0.05193711	         30.39837226	         -0.15447726	         -0.68409634	          0.48510218	         -2.29941832	          6.01887457	        -13.49168584	         17.31220838	        -12.46480714	        -13.45039481	          7.61943305	         37.08259045	         15.21962532	         86.51662706	         86.51662706	          0.32766646	          0.05766260	          0.05000004	          0.27699272	          0.10934656	          0.05909057	          0.05000331	          0.05000017	          0.05000015	          0.05000019	          0.05355599	          0.14903152	          0.21589595	          0.05000125	          0.05000172	          0.07090819	          0.15525991	          0.05924202	          0.05000038	          0.05000087	          0.05000060	          0.05000045	          0.20353631	          0.41971451	          0.05000005	          0.05000030	          0.05000020	          0.13649776	          0.11546080	          0.12317447	          0.11546008	          0.16684786	          0.21130208	          0.14199771	          0.13058655	          0.08475529	          0.15031218	          0.08055121	          0.14282452	          0.15124450	          0.13311400	          0.18214705	          0.11545823	          0.07888662	          0.05000004	          0.05000006	          0.32488011	          0.29014062	          0.36228179	          0.16561132	          0.23088964	          0.21815707	          0.06459129	          0.09864965	          0.10212452	          0.08261260	          0.05000290	          0.06350947	          0.16010935	          0.19578154	          0.14838698	          0.15243792	          0.05000030	          0.05000229	          0.09919450	          0.22302655	          0.16700798	          0.14264382	          0.05000006	          0.05000008	          0.34733094	          0.09763771	          0.14967891	          0.05000011	          0.14200631	          0.14464104	          0.12450074	          0.05000019	          0.05000038	          0.05000005	          0.05000004	          0.05911032	          0.05910959	          0.61111636	          0.42036291	          0.21767451	          0.64068747	          0.63524824	          0.37728955	          0.06616411	          0.08261305	          0.07016820	
